<svg width="75" height="30" viewBox="0 0 75 30" fill="none" xmlns="http://www.w3.org/2000/svg">
<path d="M15 3.75L1.25 11.25L15 18.75L26.25 12.6125V21.25H28.75V11.25M6.25 16.475V21.475L15 26.25L23.75 21.475V16.475L15 21.25L6.25 16.475Z" fill="#84D397" fill-opacity="0.905882"/>
<path d="M41.804 10.576V12.22H39.572V19H37.52V12.22H35.288V10.576H41.804ZM44.8858 13.42C45.1258 13.052 45.4258 12.764 45.7858 12.556C46.1458 12.34 46.5458 12.232 46.9858 12.232V14.404H46.4218C45.9098 14.404 45.5258 14.516 45.2698 14.74C45.0138 14.956 44.8858 15.34 44.8858 15.892V19H42.8338V12.304H44.8858V13.42ZM48.9987 11.608C48.6387 11.608 48.3427 11.504 48.1107 11.296C47.8867 11.08 47.7747 10.816 47.7747 10.504C47.7747 10.184 47.8867 9.92 48.1107 9.712C48.3427 9.496 48.6387 9.388 48.9987 9.388C49.3507 9.388 49.6387 9.496 49.8627 9.712C50.0947 9.92 50.2107 10.184 50.2107 10.504C50.2107 10.816 50.0947 11.08 49.8627 11.296C49.6387 11.504 49.3507 11.608 48.9987 11.608ZM50.0187 12.304V19H47.9667V12.304H50.0187ZM55.5857 12.232C56.3697 12.232 56.9937 12.488 57.4577 13C57.9297 13.504 58.1657 14.2 58.1657 15.088V19H56.1257V15.364C56.1257 14.916 56.0097 14.568 55.7777 14.32C55.5457 14.072 55.2337 13.948 54.8417 13.948C54.4497 13.948 54.1377 14.072 53.9057 14.32C53.6737 14.568 53.5577 14.916 53.5577 15.364V19H51.5057V12.304H53.5577V13.192C53.7657 12.896 54.0457 12.664 54.3977 12.496C54.7497 12.32 55.1457 12.232 55.5857 12.232ZM60.6237 11.608C60.2637 11.608 59.9677 11.504 59.7357 11.296C59.5117 11.08 59.3997 10.816 59.3997 10.504C59.3997 10.184 59.5117 9.92 59.7357 9.712C59.9677 9.496 60.2637 9.388 60.6237 9.388C60.9757 9.388 61.2637 9.496 61.4877 9.712C61.7197 9.92 61.8357 10.184 61.8357 10.504C61.8357 10.816 61.7197 11.08 61.4877 11.296C61.2637 11.504 60.9757 11.608 60.6237 11.608ZM61.6437 12.304V19H59.5917V12.304H61.6437ZM66.8627 17.26V19H65.8187C65.0747 19 64.4947 18.82 64.0787 18.46C63.6627 18.092 63.4547 17.496 63.4547 16.672V14.008H62.6387V12.304H63.4547V10.672H65.5067V12.304H66.8507V14.008H65.5067V16.696C65.5067 16.896 65.5547 17.04 65.6507 17.128C65.7467 17.216 65.9067 17.26 66.1307 17.26H66.8627ZM74.8457 12.304L70.6457 22.18H68.4377L69.9737 18.772L67.2497 12.304H69.5417L71.0897 16.492L72.6257 12.304H74.8457Z" fill="white"/>
</svg>
