<svg width="576" height="600" viewBox="0 0 576 600" fill="none" xmlns="http://www.w3.org/2000/svg">
<g clip-path="url(#clip0_11_2)">
<path fill-rule="evenodd" clip-rule="evenodd" d="M276 50C137.925 50 26 161.925 26 300C26 438.075 137.925 550 276 550C414.075 550 526 438.075 526 300C526 161.925 414.075 50 276 50ZM188.5 237.5C188.5 226.009 190.763 214.631 195.161 204.015C199.558 193.399 206.003 183.753 214.128 175.628C222.253 167.503 231.899 161.058 242.515 156.661C253.131 152.263 264.509 150 276 150C287.491 150 298.869 152.263 309.485 156.661C320.101 161.058 329.747 167.503 337.872 175.628C345.997 183.753 352.442 193.399 356.839 204.015C361.237 214.631 363.5 226.009 363.5 237.5C363.5 260.706 354.281 282.962 337.872 299.372C321.462 315.781 299.206 325 276 325C252.794 325 230.538 315.781 214.128 299.372C197.719 282.962 188.5 260.706 188.5 237.5ZM432.45 424.6C413.736 448.141 389.945 467.149 362.854 480.205C335.763 493.261 306.073 500.028 276 500C245.927 500.028 216.237 493.261 189.146 480.205C162.055 467.149 138.264 448.141 119.55 424.6C160.075 395.525 215.375 375 276 375C336.625 375 391.925 395.525 432.45 424.6Z" fill="white"/>
</g>
<defs>
<clipPath id="clip0_11_2">
<rect width="600" height="600" fill="white" transform="translate(-24)"/>
</clipPath>
</defs>
</svg>
